<svg xmlns="http://www.w3.org/2000/svg" width="284.732" height="60.097" viewBox="0 0 284.732 60.097"><g transform="translate(74.002 -205.907)"><path d="M2.02,240H9.41l1.98,2.12,1.57-.8-2.03-3.1H4.04V227.99H2.02Zm6.89-2.79h2.02v-9.22H8.91Zm7.74-.6,4.15-.45a5.6,5.6,0,0,0,.17-1.38,3.068,3.068,0,0,0-3.32-3.4c-2.07,0-3.9,1.55-3.9,4.6,0,2.54,1.4,4.3,3.95,4.3a6.177,6.177,0,0,0,3.15-.71l-.32-1.49a8.55,8.55,0,0,1-2.58.5c-1.52,0-2.27-.73-2.27-2.6,0-2.44.92-3,1.97-3,1,0,1.48.63,1.48,1.82v.1l-2.68.41ZM23.04,240h2.02v-3.49h2.43v-1.78H25.06v-3.07H23.04Zm5.28,0h2.02v-8.34H28.32Zm6.14,0h2.02v-5.72H34.46Zm-2.33-6.56h6.7v-1.78h-6.7ZM40.62,244h2.02V231.66H40.62Zm3-10.61a2.352,2.352,0,0,1,.9-.2c.94,0,1.6.72,1.6,2.57,0,1.79-.93,2.79-2.33,2.79a2.164,2.164,0,0,1-.32-.03l-.13,1.73a4.019,4.019,0,0,0,.45.03c2.65,0,4.32-1.9,4.32-4.58,0-2.91-1.49-4.32-3.27-4.32a3.437,3.437,0,0,0-1.59.53Zm12.55,1.51,5.52-.09v-1.62l-5.52-.08Zm-1.76,4.57a8.127,8.127,0,0,0,4.04.9c3.9,0,6.19-2.64,6.19-6.38s-2.29-6.37-6.19-6.37a13.281,13.281,0,0,0-3.82.69l.33,1.73a15.118,15.118,0,0,1,3.49-.55c2.47,0,4.09,1.29,4.09,4.5s-1.65,4.51-4.09,4.51a8.907,8.907,0,0,1-3.49-.74Zm12.2.9s2.2-1.12,2.28-1.57l.94-5.46h1.22v-1.68H68.13l-.99,5.77c-.08.48-1.43,1.29-1.43,1.29Zm5.27-.37H73.9v-8.34H71.88Zm6.82-3.39,4.16-.45a5.933,5.933,0,0,0,.16-1.38,3.068,3.068,0,0,0-3.32-3.4c-2.07,0-3.9,1.55-3.9,4.6,0,2.54,1.4,4.3,3.95,4.3a6.241,6.241,0,0,0,3.16-.71l-.32-1.49a8.654,8.654,0,0,1-2.59.5c-1.51,0-2.27-.73-2.27-2.6,0-2.44.92-3,1.97-3,1,0,1.49.63,1.49,1.82v.1l-2.69.41Zm12.18,3.76,1.85-.92-3.44-3.69,2.96-3.45-1.49-.97-2.82,3.36v2.2ZM85.09,240h2.02v-8.34H85.09Zm10.46,0h2.02v-5.72H95.55Zm-2.34-6.56h6.71v-1.78H93.21Zm8.5,10.56h2.01V231.66h-2.01Zm3-10.61a2.352,2.352,0,0,1,.9-.2c.93,0,1.6.72,1.6,2.57,0,1.79-.93,2.79-2.34,2.79a1.952,1.952,0,0,1-.31-.03l-.14,1.73a4.268,4.268,0,0,0,.45.03c2.66,0,4.33-1.9,4.33-4.58,0-2.91-1.49-4.32-3.27-4.32a3.385,3.385,0,0,0-1.59.53Zm10.41,5.16a2.8,2.8,0,0,1-.84-5.29l-.38-1.73a4.2,4.2,0,0,0-3.19,4.3,4.287,4.287,0,0,0,4.41,4.45Zm-.05-5.44a2.486,2.486,0,0,1,2.42,2.72,2.555,2.555,0,0,1-1.59,2.59l.37,1.71a4.2,4.2,0,0,0,3.2-4.3,4.29,4.29,0,0,0-4.4-4.45Zm6.45,6.89h2.02v-3.49h2.44v-1.78h-2.44v-3.07h-2.02Zm5.29,0h2.02v-8.34h-2.02Zm4.72,0h2.02v-3.49h2.44v-1.78h-2.44v-3.07h-2.02Zm5.29,0h2.02v-8.34h-2.02Zm7.57-4.34s.4-.05.52-.05c1.02,0,1.45.44,1.47,1.29a1.288,1.288,0,0,1-1.42,1.4h-3.42V240h3.6a2.957,2.957,0,0,0,3.14-3.05,2.818,2.818,0,0,0-3.12-2.87,6.394,6.394,0,0,0-.78.15Zm-2.85,1.8h2.02v-5.8h-2.02ZM149.4,240h2.03v-8.34H149.4Zm10.94.37,1.83-.92-2.78-2.99-1.29,1.32Zm-7.37-.92,1.87.92,2.7-3.22,4.48-4.84-1.81-.93-2.56,3.17Zm2.73-4.27,1.42-1.29-2.07-2.51-1.88.86Zm15.55,1.12,1.2-1.79-2.99-6.89-2,.65Zm-1.33,4.07s3.08-.7,3.65-2.07l4.14-10.06-2.07-.62-3.46,9.36-.4.47a7.586,7.586,0,0,1-2.52,1.17Zm14.91-2.25a8.138,8.138,0,0,1-1.92.33,2.2,2.2,0,0,1-2.3-2.47c0-1.79.71-2.75,2.37-2.75a10.962,10.962,0,0,1,1.76.2l.14-1.75a6.685,6.685,0,0,0-1.9-.3c-2.84,0-4.46,1.8-4.46,4.6a4,4,0,0,0,4.21,4.3,5.609,5.609,0,0,0,2.48-.58Zm1.85,2.25s2.2-1.12,2.28-1.57l.94-5.46h1.22v-1.68H188.2l-.99,5.77c-.08.48-1.43,1.29-1.43,1.29Zm5.27-.37h2.02v-8.34h-2.02Zm6.39-1.33,1.22-1.92-1.95-5.37-2.11.46Zm-1.08,5.62s2.36-.75,2.55-1.2l4.54-11.23-2.12-.48-2.92,8.22-1,2c-.25.44-1.72,1-1.72,1Zm8.67-4.29h2.02v-5.72h-2.02Zm0-6.56h4.8v-1.78h-4.8Z" fill="#fff"/></g><path d="M18.816,43.034,11.527,55.659l7.289,12.625H33.394l7.29-12.625-7.29-12.625Z" transform="translate(-9.49 -9.951)" fill="rgba(255,255,255,0)"/><path d="M33.394,36.966l7.29-12.625-7.29-12.625H18.816L11.527,24.341l7.289,12.625Z" transform="translate(-9.49 -9.951)" fill="rgba(255,255,255,0)"/><path d="M61.184,27.763H46.606l-7.29,12.624,7.29,12.626H61.184l7.29-12.626Z" transform="translate(-9.49 -9.951)" fill="rgba(255,255,255,0)"/><path d="M62.2,26H45.586L37.279,40.387l8.308,14.39H62.2l8.308-14.39ZM61.184,53.013H46.606l-7.29-12.625,7.29-12.625H61.184l7.289,12.625Z" transform="translate(-9.49 -9.951)" fill="#fff"/><path d="M17.8,41.27,9.49,55.659,17.8,70.048H34.413l8.308-14.389L34.413,41.27Zm15.6,27.014H18.816L11.527,55.659l7.289-12.625H33.394l7.29,12.625Z" transform="translate(-9.49 -9.951)" fill="#fff"/><path d="M34.413,38.73l8.308-14.389L34.413,9.951H17.8L9.49,24.341,17.8,38.73H34.413Zm-15.6-27.014H33.394l7.29,12.625-7.29,12.625H18.816L11.527,24.341Z" transform="translate(-9.49 -9.951)" fill="#fff"/></svg>